<?xml version="1.0" encoding="UTF-8"?>
<svg id="Layer_1" xmlns="http://www.w3.org/2000/svg" version="1.1" viewBox="0 0 2409.62 342.23">
  <!-- Generator: Adobe Illustrator 30.4.0, SVG Export Plug-In . SVG Version: 2.1.4 Build 226)  -->
  <defs>
    <style>
      .st0 {
        fill: #3a3a3a;
      }
    </style>
  </defs>
  <g>
    <polygon class="st0" points="300.65 27.86 300.66 313.78 231.63 313.75 113.36 149.11 113.18 313.74 52.88 313.71 52.9 27.85 117.81 27.84 206.68 151.9 238.29 194.94 238.36 27.85 300.65 27.86"/>
    <path class="st0" d="M884.03,216.56l58.41,97.01-65.43-.29c-6.49-.03-13.08-4.39-19.53-6.76l-56.17-103.47c-.88-1.63-2.18-4.49-3.5-4.64s-3.9.19-5.7.62l-.05,114.71-74.09-.04-.02-285.86,105.14.09c19.01.02,36.46,3.65,54.12,9.41,30.43,12.7,50.81,33.31,52.58,67.17,1.59,30.39-14.53,57.05-42.48,69.1-10.5,4.52-21.32,6.76-33.66,8.79,12.24,9.82,22.06,20.32,30.4,34.17ZM815.21,52.85c-7.51-2.28-15.28-2.72-23.15-2.45v127.66c25.63.55,48.03-15.75,55.97-40.26,10.42-32.15,2.59-74.21-32.82-84.95Z"/>
    <path class="st0" d="M601.13,214.82c-22.93,81.52-111.08,118.67-191.01,93.65-25.17-7.88-46.16-22.41-62.91-42.45-21.95-26.27-32.12-59.1-32.33-93.3-.38-60.76,31.23-113.44,87.97-135.93,79.83-31.63,172.56,2.53,197.82,87.2,8.82,29.57,8.84,61.01.46,90.82ZM513.03,267c21.47-29.3,21.01-78.45,15.44-113.94-5.44-34.7-21.7-74.44-52.58-91.89-24.39-13.78-53.85-6.37-68.55,17.43-7.03,11.38-11.86,23.69-13.84,37.31-6.81,46.86.26,102.91,27.84,141.64,8.96,12.57,20.3,22.34,34.61,27.38,21.43,7.54,43.45.66,57.07-17.92Z"/>
    <polygon class="st0" points="695.23 313.64 620.41 313.77 620.43 27.9 695.24 27.8 695.23 313.64"/>
  </g>
  <g>
    <path class="st0" d="M1010.89,313.76l-.03-285.83,77.59.08.13,266.41c33.67-2.13,63.62-17.58,86.85-40.03-28.31-40.55-31.69-96.11-13.84-140.32,15.01-37.18,43.86-64.89,81.77-78.33,40.24-14.26,84.52-15.35,124.8-1.69,56.25,19.07,92.42,69.44,93.98,128.18.67,25.2-2.36,48.74-13.06,71.93-33.96,73.59-117.33,96.35-193.37,77.13-30.6-8.59-55.56-24.96-75.92-49.53l-.34,51.89-168.56.11ZM1364.38,269.67c9.24-12.74,14.5-27.17,17.05-43.13,8.62-53.82-2.34-124.3-45.03-160.24-16.67-14.04-38.03-19.98-59.02-13.87-35.07,10.21-47.55,51.27-48.64,86.56-1.47,47.95,11.38,107.67,49.76,137.45,28.28,21.94,65.83,20.89,85.88-6.77Z"/>
    <path class="st0" d="M2149.44,313.34l-68.67.3-17.19-3.49-59.75-105.6c-2.68-4.74-4.32-8.47-10.83-6.02v115.14s-76.93.03-76.93.03l-.03-285.75,120.51.42c24.62.09,47.73,7.18,68.2,19.24,16.26,10.84,27.16,25.62,30.89,44.4,6.59,33.15-8.52,64.88-39.08,79.32-12.41,5.86-25.11,8.88-39.54,10.57,13.88,10.19,24.44,22.54,34,36.87l58.42,94.57ZM2021.8,53.19c-9.04-3.38-18.79-4.16-28.82-4.26l.05,128.76c25.12.35,48.24-14.32,57.54-37.72,12.51-31.48,4.75-74.27-28.77-86.78Z"/>
    <path class="st0" d="M1873.82,199.69c-27.37-14.31-55.47-22.47-87.05-21.69l-.08,116.05c41.17-.52,78.18-15.39,110.23-42.66l.27,62.28-188.88.03-.04-285.74,185.49.03-.03,58.47c-31.82-24.82-66.92-38.88-106.91-37.5l-.16,109.13c30.43.45,60.2-6.35,87.25-21.81l-.1,63.42Z"/>
    <path class="st0" d="M2320.22,299.41c-44.51,28.13-116.84,21.97-164.53-4.39l.03-76.15c15.79,22.47,31.11,42.61,52.58,58.47,22.39,17.69,58.57,27.22,74.68,5.58,13.5-18.12,4.08-43.03-12.26-54.66l-34.27-24.41-44.53-28.83c-13.33-8.63-24.33-19.91-32.3-33.72-17.11-29.65-12.02-67.29,13.49-90.2,42-37.73,119.76-31.45,168.93-5.6l-.26,72.97-28.33-35.58c-17.15-21.54-51.69-44.4-80.3-34.84-15.44,5.16-22.92,20.89-18.15,36.57,2.99,9.82,9.44,18.55,18.26,24.25l50.75,32.79c37.72,24.37,76.2,46.63,72.47,97.57-1.75,23.84-14.57,46.47-36.27,60.18Z"/>
    <path class="st0" d="M1646.35,68.12c-1.41-16.02-6.1-28.94-17.07-40.1h72.81s-100.01,282.7-100.01,282.7l-61.91-1.52-83.39-239.88-14.16-41.22,78.91-.21c6.79-.02,10.26,3.67,12.28,9.8l52.63,159.63,14.91,46.37,38.88-129.45c3.42-15.36,5.92-29.69,6.11-46.12Z"/>
    <path class="st0" d="M1306.45,218.73c-3.67-23.51-19.26-42.28-43.68-46.89,24.29-6.37,39.59-22.16,43.69-46.83,4.75,23.8,19.42,41.35,44.89,46.61-24.49,5.32-39.7,21.28-44.9,47.1Z"/>
  </g>
</svg>